<mxfile>
    <diagram id="MjOGOkihV0Do8A0xy6C5" name="internal">
        <mxGraphModel dx="966" dy="159" grid="0" gridSize="10" guides="0" tooltips="1" connect="1" arrows="1" fold="1" page="0" pageScale="1" pageWidth="850" pageHeight="1100" math="0" shadow="0">
            <root>
                <mxCell id="SZBrdm47m0Yy1qLZXSgB-0"/>
                <mxCell id="SZBrdm47m0Yy1qLZXSgB-1" parent="SZBrdm47m0Yy1qLZXSgB-0"/>
                <mxCell id="52" value="" style="rounded=1;whiteSpace=wrap;html=1;fillColor=none;dashed=1;" parent="SZBrdm47m0Yy1qLZXSgB-1" vertex="1">
                    <mxGeometry x="210" y="404" width="620" height="210" as="geometry"/>
                </mxCell>
                <mxCell id="54" value="" style="rounded=1;whiteSpace=wrap;html=1;fillColor=none;dashed=1;" parent="SZBrdm47m0Yy1qLZXSgB-1" vertex="1">
                    <mxGeometry x="210" y="645" width="390" height="105" as="geometry"/>
                </mxCell>
                <mxCell id="56" value="" style="endArrow=classic;html=1;exitX=1;exitY=0.5;exitDx=0;exitDy=0;entryX=0;entryY=0.5;entryDx=0;entryDy=0;" parent="SZBrdm47m0Yy1qLZXSgB-1" source="88" target="93" edge="1">
                    <mxGeometry x="40" y="380" width="50" height="50" as="geometry">
                        <mxPoint x="190.9400000000005" y="502.5" as="sourcePoint"/>
                        <mxPoint x="225.94000000000005" y="456.56500000000005" as="targetPoint"/>
                    </mxGeometry>
                </mxCell>
                <mxCell id="59" value="" style="endArrow=classic;html=1;exitX=0.5;exitY=1;exitDx=0;exitDy=0;entryX=0.5;entryY=0;entryDx=0;entryDy=0;" parent="SZBrdm47m0Yy1qLZXSgB-1" source="93" target="98" edge="1">
                    <mxGeometry x="139.06" y="377.5" width="50" height="50" as="geometry">
                        <mxPoint x="290.0000000000005" y="500" as="sourcePoint"/>
                        <mxPoint x="325.06" y="555.33" as="targetPoint"/>
                    </mxGeometry>
                </mxCell>
                <mxCell id="60" value="" style="endArrow=classic;html=1;entryX=0.5;entryY=0;entryDx=0;entryDy=0;exitX=0.5;exitY=1;exitDx=0;exitDy=0;" parent="SZBrdm47m0Yy1qLZXSgB-1" source="98" target="97" edge="1">
                    <mxGeometry x="40" y="380" width="50" height="50" as="geometry">
                        <mxPoint x="271" y="595.66" as="sourcePoint"/>
                        <mxPoint x="525" y="661.81" as="targetPoint"/>
                    </mxGeometry>
                </mxCell>
                <mxCell id="61" value="C FFI" style="text;html=1;strokeColor=none;fillColor=none;align=center;verticalAlign=middle;whiteSpace=wrap;rounded=0;" parent="SZBrdm47m0Yy1qLZXSgB-1" vertex="1">
                    <mxGeometry x="220.0025" y="621" width="43.75" height="21.875" as="geometry"/>
                </mxCell>
                <mxCell id="62" value="Текстовое&lt;br&gt;предст-ие&lt;br&gt;инструкций" style="ellipse;whiteSpace=wrap;html=1;aspect=fixed;" parent="SZBrdm47m0Yy1qLZXSgB-1" vertex="1">
                    <mxGeometry x="330" y="657.2" width="81" height="81" as="geometry"/>
                </mxCell>
                <mxCell id="63" value="" style="endArrow=classic;html=1;exitX=1;exitY=0.5;exitDx=0;exitDy=0;entryX=0;entryY=0.5;entryDx=0;entryDy=0;" parent="SZBrdm47m0Yy1qLZXSgB-1" source="97" target="62" edge="1">
                    <mxGeometry x="40" y="380" width="50" height="50" as="geometry">
                        <mxPoint x="575" y="661.81" as="sourcePoint"/>
                        <mxPoint x="608.75" y="653.4375" as="targetPoint"/>
                    </mxGeometry>
                </mxCell>
                <mxCell id="64" value="C FFI" style="text;html=1;strokeColor=none;fillColor=none;align=center;verticalAlign=middle;whiteSpace=wrap;rounded=0;" parent="SZBrdm47m0Yy1qLZXSgB-1" vertex="1">
                    <mxGeometry x="329.9975" y="621.25" width="43.75" height="21.875" as="geometry"/>
                </mxCell>
                <mxCell id="65" value="Метаданные" style="ellipse;whiteSpace=wrap;html=1;aspect=fixed;" parent="SZBrdm47m0Yy1qLZXSgB-1" vertex="1">
                    <mxGeometry x="430" y="417" width="81" height="81" as="geometry"/>
                </mxCell>
                <mxCell id="66" value="" style="endArrow=classic;html=1;entryX=0;entryY=0.5;entryDx=0;entryDy=0;exitX=1;exitY=0.5;exitDx=0;exitDy=0;" parent="SZBrdm47m0Yy1qLZXSgB-1" source="93" target="65" edge="1">
                    <mxGeometry x="30" y="380" width="50" height="50" as="geometry">
                        <mxPoint x="320" y="456.56500000000005" as="sourcePoint"/>
                        <mxPoint x="401.875" y="412.8125" as="targetPoint"/>
                    </mxGeometry>
                </mxCell>
                <mxCell id="69" value="" style="endArrow=classic;html=1;exitX=1;exitY=0.5;exitDx=0;exitDy=0;entryX=0;entryY=0.5;entryDx=0;entryDy=0;" parent="SZBrdm47m0Yy1qLZXSgB-1" source="65" target="72" edge="1">
                    <mxGeometry x="-50" y="380" width="50" height="50" as="geometry">
                        <mxPoint x="453.125" y="467.5" as="sourcePoint"/>
                        <mxPoint x="610" y="456" as="targetPoint"/>
                    </mxGeometry>
                </mxCell>
                <mxCell id="70" value="" style="endArrow=classic;html=1;exitX=0.5;exitY=0;exitDx=0;exitDy=0;entryX=0.5;entryY=1;entryDx=0;entryDy=0;" parent="SZBrdm47m0Yy1qLZXSgB-1" source="62" target="94" edge="1">
                    <mxGeometry x="30" y="380" width="50" height="50" as="geometry">
                        <mxPoint x="609.6875" y="697.1875" as="sourcePoint"/>
                        <mxPoint x="435" y="555.0050000000001" as="targetPoint"/>
                    </mxGeometry>
                </mxCell>
                <mxCell id="71" value="Управляю-щий граф (CFG)" style="ellipse;whiteSpace=wrap;html=1;aspect=fixed;" parent="SZBrdm47m0Yy1qLZXSgB-1" vertex="1">
                    <mxGeometry x="430" y="517.5" width="81" height="81" as="geometry"/>
                </mxCell>
                <mxCell id="72" value="Статические анализаторы" style="rounded=1;whiteSpace=wrap;html=1;" parent="SZBrdm47m0Yy1qLZXSgB-1" vertex="1">
                    <mxGeometry x="540" y="467.5" width="80" height="75.66" as="geometry"/>
                </mxCell>
                <mxCell id="73" value="" style="endArrow=classic;html=1;exitX=1;exitY=0.5;exitDx=0;exitDy=0;entryX=0;entryY=0.5;entryDx=0;entryDy=0;" parent="SZBrdm47m0Yy1qLZXSgB-1" source="71" target="72" edge="1">
                    <mxGeometry x="270" y="281.57" width="50" height="50" as="geometry">
                        <mxPoint x="600" y="553.44" as="sourcePoint"/>
                        <mxPoint x="610" y="460" as="targetPoint"/>
                    </mxGeometry>
                </mxCell>
                <mxCell id="74" value="Список найденных проблем" style="ellipse;whiteSpace=wrap;html=1;aspect=fixed;" parent="SZBrdm47m0Yy1qLZXSgB-1" vertex="1">
                    <mxGeometry x="640" y="465" width="81" height="81" as="geometry"/>
                </mxCell>
                <mxCell id="77" value="" style="endArrow=classic;html=1;entryX=0;entryY=0.5;entryDx=0;entryDy=0;exitX=1;exitY=0.5;exitDx=0;exitDy=0;" parent="SZBrdm47m0Yy1qLZXSgB-1" source="74" target="91" edge="1">
                    <mxGeometry x="500" y="228.89" width="50" height="50" as="geometry">
                        <mxPoint x="808" y="502" as="sourcePoint"/>
                        <mxPoint x="765.9999999999998" y="504.81500000000005" as="targetPoint"/>
                    </mxGeometry>
                </mxCell>
                <mxCell id="79" value="" style="endArrow=classic;html=1;exitX=1;exitY=0.5;exitDx=0;exitDy=0;entryX=0;entryY=0.5;entryDx=0;entryDy=0;" parent="SZBrdm47m0Yy1qLZXSgB-1" source="91" target="86" edge="1">
                    <mxGeometry width="50" height="50" relative="1" as="geometry">
                        <mxPoint x="850" y="499.81500000000005" as="sourcePoint"/>
                        <mxPoint x="994.0000000000005" y="500.10000000000014" as="targetPoint"/>
                    </mxGeometry>
                </mxCell>
                <mxCell id="83" value="Динамическая библиотека LLVM" style="text;html=1;strokeColor=none;fillColor=none;align=right;verticalAlign=middle;whiteSpace=wrap;rounded=0;dashed=1;fontSize=14;fontStyle=1" parent="SZBrdm47m0Yy1qLZXSgB-1" vertex="1">
                    <mxGeometry x="450" y="706" width="130" height="29.31" as="geometry"/>
                </mxCell>
                <mxCell id="84" value="&lt;font style=&quot;font-size: 14px&quot;&gt;Система&lt;br&gt;статического анализа&lt;/font&gt;" style="text;html=1;strokeColor=none;fillColor=none;align=right;verticalAlign=middle;whiteSpace=wrap;rounded=0;dashed=1;fontStyle=1" parent="SZBrdm47m0Yy1qLZXSgB-1" vertex="1">
                    <mxGeometry x="630" y="567" width="170" height="28.75" as="geometry"/>
                </mxCell>
                <mxCell id="86" value="Сообщения&lt;br&gt;для пользо-вателя" style="ellipse;whiteSpace=wrap;html=1;aspect=fixed;" parent="SZBrdm47m0Yy1qLZXSgB-1" vertex="1">
                    <mxGeometry x="850" y="460" width="90" height="90" as="geometry"/>
                </mxCell>
                <mxCell id="88" value="Исполняемый файл ELF" style="ellipse;whiteSpace=wrap;html=1;aspect=fixed;" parent="SZBrdm47m0Yy1qLZXSgB-1" vertex="1">
                    <mxGeometry x="106" y="413" width="90" height="90" as="geometry"/>
                </mxCell>
                <mxCell id="89" value="" style="endArrow=classic;html=1;exitX=1;exitY=0.5;exitDx=0;exitDy=0;entryX=0;entryY=0.5;entryDx=0;entryDy=0;" parent="SZBrdm47m0Yy1qLZXSgB-1" source="72" target="74" edge="1">
                    <mxGeometry width="50" height="50" relative="1" as="geometry">
                        <mxPoint x="660" y="575" as="sourcePoint"/>
                        <mxPoint x="710" y="525" as="targetPoint"/>
                    </mxGeometry>
                </mxCell>
                <mxCell id="91" value="Модуль форматиро-вания вывода" style="rounded=1;whiteSpace=wrap;html=1;" parent="SZBrdm47m0Yy1qLZXSgB-1" vertex="1">
                    <mxGeometry x="740" y="467.5" width="80" height="75.66" as="geometry"/>
                </mxCell>
                <mxCell id="93" value="Модуль&lt;br&gt;чтения&lt;br&gt;файлов ELF" style="rounded=1;whiteSpace=wrap;html=1;" parent="SZBrdm47m0Yy1qLZXSgB-1" vertex="1">
                    <mxGeometry x="226" y="420" width="80" height="75.66" as="geometry"/>
                </mxCell>
                <mxCell id="100" style="edgeStyle=orthogonalEdgeStyle;rounded=0;orthogonalLoop=1;jettySize=auto;html=1;exitX=1;exitY=0.5;exitDx=0;exitDy=0;entryX=0;entryY=0.5;entryDx=0;entryDy=0;fontSize=14;" parent="SZBrdm47m0Yy1qLZXSgB-1" source="94" target="71" edge="1">
                    <mxGeometry relative="1" as="geometry"/>
                </mxCell>
                <mxCell id="94" value="Построитель управляю-щего графа" style="rounded=1;whiteSpace=wrap;html=1;" parent="SZBrdm47m0Yy1qLZXSgB-1" vertex="1">
                    <mxGeometry x="330" y="520" width="80" height="75.66" as="geometry"/>
                </mxCell>
                <mxCell id="97" value="Диз-ассемблер" style="rounded=1;whiteSpace=wrap;html=1;" parent="SZBrdm47m0Yy1qLZXSgB-1" vertex="1">
                    <mxGeometry x="226" y="660" width="80" height="75.66" as="geometry"/>
                </mxCell>
                <mxCell id="98" value="Машинный код (.text)" style="ellipse;whiteSpace=wrap;html=1;aspect=fixed;" parent="SZBrdm47m0Yy1qLZXSgB-1" vertex="1">
                    <mxGeometry x="225.5" y="517.5" width="81" height="81" as="geometry"/>
                </mxCell>
            </root>
        </mxGraphModel>
    </diagram>
</mxfile>
